<?xml version="1.0" encoding="UTF-8"?>
<svg xmlns="http://www.w3.org/2000/svg" viewBox="0 0 929.0 259.0" width="929.0" height="259.0" role="img" aria-label="Sovereign Warden">
  <title>Sovereign Warden</title>
  <g transform="translate(0,259.0) scale(0.1,-0.1)" fill="#FFFFFF" stroke="none">
    <path d="M1073 2549 c-4 0 -111 -60 -238 -133 -126 -72 -324 -185 -440 -250
-115 -65 -243 -137 -282 -160 l-73 -41 3 -299 2 -300 134 -78 c73 -43 137 -78
142 -78 6 0 9 118 7 286 -2 284 -2 286 20 302 12 10 77 48 144 86 68 38 215
121 328 185 113 64 217 123 233 131 25 12 31 11 70 -10 23 -13 83 -47 132 -75
50 -29 160 -92 245 -140 85 -48 192 -110 238 -137 l82 -49 0 -67 c0 -37 4 -72
8 -77 4 -6 38 -30 75 -53 38 -23 70 -42 72 -42 3 0 34 -18 70 -40 l65 -40 0
248 0 247 -88 51 c-48 28 -141 82 -207 119 -66 38 -187 106 -270 153 -82 46
-175 98 -205 115 -30 16 -66 38 -80 47 -14 9 -60 35 -102 58 -42 23 -81 42
-85 41z M3482 1816 c-37 2 -82 -1 -100 -5 -19 -5 -50 -22 -70 -38 -21 -17 -43
-47 -50 -69 -8 -21 -11 -57 -9 -78 3 -22 14 -51 25 -65 10 -14 36 -36 58 -48
21 -12 77 -32 123 -45 48 -12 96 -32 113 -46 21 -18 28 -32 28 -61 0 -26 -7
-44 -22 -59 -13 -11 -36 -25 -51 -31 -16 -6 -45 -11 -64 -11 -20 0 -56 9 -80
21 -23 11 -52 34 -64 50 -20 29 -21 29 -50 12 -16 -10 -29 -24 -29 -32 0 -8
19 -33 43 -55 24 -23 61 -47 85 -54 23 -7 66 -13 95 -13 29 -1 71 4 94 10 23
6 58 26 76 44 19 18 40 51 47 74 8 25 10 56 5 80 -5 26 -20 51 -50 79 -35 34
-57 45 -126 64 -46 12 -100 31 -120 41 -20 10 -39 25 -43 34 -3 9 -6 28 -6 41
0 14 4 34 10 44 5 10 30 26 54 35 32 12 58 15 89 11 32 -5 53 -16 77 -41 19
-19 39 -35 45 -35 6 0 21 7 33 16 22 15 22 16 5 46 -10 16 -37 41 -61 55 -32
19 -61 27 -110 29z M4243 1816 c-59 4 -90 0 -130 -14 -28 -10 -67 -30 -86 -45
-20 -15 -45 -40 -56 -56 -11 -16 -30 -50 -41 -76 -14 -33 -20 -69 -20 -124 0
-67 4 -86 31 -140 23 -45 47 -75 86 -105 30 -24 72 -48 92 -55 21 -6 68 -11
104 -11 42 0 86 7 121 20 37 14 69 36 100 70 26 28 56 71 68 97 15 35 21 69
21 128 1 62 -4 91 -22 131 -12 28 -41 69 -64 92 -23 22 -61 50 -84 62 -29 15
-67 23 -120 26z m-11 -78 c67 -3 82 -7 120 -33 24 -17 54 -50 66 -73 14 -25
26 -67 29 -102 3 -34 0 -78 -7 -104 -6 -24 -25 -60 -42 -80 -16 -20 -49 -46
-71 -58 -29 -15 -61 -21 -102 -22 -38 0 -73 6 -97 18 -20 10 -49 30 -64 44
-14 15 -35 45 -47 67 -14 29 -20 59 -20 110 0 41 6 84 15 105 8 19 28 48 44
63 16 16 44 38 64 48 27 15 52 19 112 17z M8257 1816 c-42 2 -89 -2 -112 -9
-22 -8 -53 -21 -70 -29 -16 -9 -44 -31 -62 -50 -17 -18 -42 -53 -55 -78 -20
-38 -23 -60 -23 -145 0 -87 3 -106 25 -149 14 -27 46 -68 73 -92 27 -24 70
-50 99 -60 28 -9 74 -16 103 -16 28 0 71 6 95 12 23 6 60 23 81 37 22 14 48
40 58 57 10 17 24 55 30 84 6 29 11 73 11 98 l0 45 -132 -3 -133 -3 0 -35 0
-35 88 -3 87 -3 0 -34 c0 -18 -4 -45 -9 -59 -6 -13 -31 -37 -57 -52 -37 -22
-60 -28 -108 -28 -40 0 -74 6 -100 19 -22 10 -53 33 -70 50 -18 17 -39 55 -48
86 -10 31 -18 69 -18 86 0 16 7 52 15 79 8 28 29 64 47 83 17 18 46 40 62 48
17 9 48 20 69 23 21 4 58 3 83 -2 25 -5 65 -25 89 -44 25 -19 49 -34 53 -34 4
1 18 9 30 20 l24 20 -21 29 c-12 16 -46 42 -77 57 -41 20 -74 28 -127 30z
M4759 1810 l-46 0 73 -182 c40 -101 80 -201 89 -223 9 -22 31 -76 48 -120 l33
-80 49 0 48 0 68 170 c37 94 75 186 83 205 8 19 31 77 50 128 20 52 36 96 36
98 0 2 -19 4 -42 4 l-43 0 -96 -243 c-53 -133 -100 -242 -105 -242 -5 0 -32
59 -60 130 -29 72 -58 146 -67 165 -8 19 -27 70 -43 113 l-29 77 -46 0z M5745
1810 l-195 0 0 -305 0 -305 200 0 200 0 0 35 0 35 -155 0 -155 0 0 100 0 100
103 1 c56 0 116 2 132 2 27 2 30 5 29 32 -1 17 -2 33 -3 38 -1 4 -59 7 -131 7
l-130 0 0 95 0 95 150 0 150 0 0 35 0 35 -195 0z M6393 1808 l-163 3 0 -305 0
-306 40 0 40 0 0 115 0 115 68 0 69 0 74 -115 74 -115 48 0 c36 0 46 3 41 13
-4 6 -38 58 -76 115 -37 57 -68 105 -68 108 0 2 15 10 33 18 17 7 43 24 56 36
13 13 29 38 37 56 8 18 14 54 14 79 0 26 -9 63 -20 85 -11 22 -39 52 -62 67
-40 27 -46 28 -205 31z m28 -68 c90 0 100 -2 128 -25 16 -14 35 -41 41 -59 8
-25 7 -42 -2 -71 -9 -26 -24 -44 -48 -56 -27 -15 -56 -19 -132 -19 l-98 0 0
108 c0 60 3 112 7 115 3 4 50 7 104 7z M7148 1810 l-193 0 0 -304 0 -304 60
-5 c33 -3 122 -3 198 0 l138 6 -3 31 -3 31 -152 3 -153 3 0 99 0 99 133 3 132
3 0 35 0 35 -132 3 -133 3 0 94 0 95 150 0 150 0 0 35 0 35 -192 0z M7647
1808 l-34 3 -6 -107 c-4 -59 -7 -189 -7 -290 0 -100 3 -189 6 -198 4 -10 18
-16 39 -16 l33 0 7 113 c4 61 4 198 1 302 l-6 190 -33 3z M8784 1810 l-44 0 0
-304 c0 -168 3 -307 8 -309 4 -3 22 -2 40 0 l32 5 0 224 c0 125 4 224 9 224 5
0 53 -60 107 -134 55 -74 128 -175 163 -225 61 -88 65 -91 102 -91 l39 0 0
305 0 305 -40 0 -40 0 0 -220 c0 -121 -4 -220 -8 -220 -4 0 -25 24 -47 53 -22
28 -77 104 -124 167 -46 63 -100 139 -119 168 -33 49 -37 52 -78 52z M1832
1400 c-9 0 -12 -77 -12 -295 l0 -294 -47 -27 c-27 -14 -100 -57 -163 -94 -63
-37 -185 -107 -270 -156 -85 -48 -175 -100 -199 -116 -25 -15 -52 -28 -61 -28
-9 0 -83 39 -166 87 -82 47 -196 114 -254 148 -58 34 -156 90 -217 126 -111
63 -113 65 -113 100 0 20 -3 57 -6 83 -6 44 -11 50 -58 80 -28 18 -88 54 -133
79 -46 26 -85 47 -88 47 -3 0 -5 -112 -5 -249 l0 -249 61 -36 c33 -20 62 -36
65 -36 2 0 54 -30 116 -66 62 -37 156 -91 208 -122 52 -30 160 -93 240 -140
80 -47 181 -106 225 -132 44 -26 90 -52 102 -59 20 -10 46 3 240 117 120 71
279 164 353 207 74 42 171 98 215 125 44 26 117 69 163 95 l82 47 0 299 0 299
-37 24 c-21 13 -81 49 -134 80 -53 31 -101 56 -107 56z M4596 848 c-15 3 -18
-1 -14 -20 3 -12 18 -61 32 -108 14 -47 34 -113 43 -148 15 -58 18 -63 42 -60
21 3 28 12 44 63 11 33 27 89 36 124 9 36 22 66 29 69 7 2 14 -2 16 -10 2 -7
21 -66 42 -130 33 -103 41 -118 59 -118 19 0 26 13 48 83 14 45 35 118 47 161
11 44 20 84 20 89 0 4 -7 7 -16 5 -11 -2 -27 -38 -50 -113 -18 -60 -34 -118
-34 -127 0 -10 -7 -18 -15 -18 -8 0 -19 17 -26 43 -6 23 -24 80 -39 127 -22
65 -32 85 -47 85 -14 0 -26 -26 -59 -123 -23 -68 -46 -128 -52 -134 -7 -7 -12
-4 -15 8 -3 11 -15 55 -27 99 -12 44 -27 96 -34 115 -7 20 -20 36 -30 38z
M5472 848 c-15 2 -25 -4 -31 -20 -5 -13 -19 -45 -31 -73 -12 -27 -28 -63 -35
-80 -8 -16 -25 -59 -39 -94 -14 -36 -26 -66 -26 -68 0 -3 10 -3 22 -1 14 2 25
15 33 38 l12 35 92 3 92 3 15 -36 c8 -20 21 -38 30 -42 8 -3 17 -3 21 0 3 3
-15 52 -40 109 -25 57 -57 130 -70 163 -17 45 -29 61 -45 63z m1 -68 c7 0 22
-26 35 -58 13 -31 26 -65 29 -74 5 -16 -2 -18 -62 -18 l-67 0 5 28 c3 15 15
48 27 75 11 26 26 47 33 47z M6026 850 c-42 0 -76 -3 -76 -7 -1 -5 -1 -80 -1
-168 0 -134 3 -161 15 -163 12 -3 16 11 18 65 l3 68 37 3 c36 3 38 1 83 -67
31 -47 53 -71 66 -71 10 0 19 2 19 5 0 2 -16 29 -35 59 -19 30 -35 58 -35 62
0 4 16 22 35 40 25 23 35 40 35 62 0 17 -5 42 -11 56 -7 14 -26 32 -44 41 -21
9 -61 15 -109 15z m34 -35 c39 -4 60 -11 73 -26 9 -12 17 -34 17 -50 0 -19 -8
-34 -24 -44 -17 -11 -42 -15 -83 -13 l-58 3 -3 59 c-2 40 1 62 10 68 7 5 38 6
68 3z M6588 850 l-68 0 0 -170 0 -170 79 0 c47 0 93 6 114 15 19 8 45 26 56
41 12 15 26 45 32 67 6 23 8 57 5 76 -3 18 -16 51 -30 71 -18 27 -38 42 -72
54 -26 9 -78 16 -116 16z m42 -33 c32 -3 69 -13 84 -22 15 -10 33 -34 41 -53
8 -19 15 -50 15 -69 0 -19 -7 -47 -14 -62 -8 -15 -27 -36 -41 -45 -15 -10 -50
-20 -78 -22 -29 -3 -57 -1 -64 3 -8 6 -12 49 -14 130 -1 67 2 127 6 133 5 9
26 11 65 7z M7228 848 l-108 3 0 -171 0 -170 110 0 c90 0 110 3 110 15 0 11
-19 15 -92 17 l-93 3 -3 54 c-2 37 1 57 10 62 7 5 43 9 81 9 52 0 67 3 67 15
0 11 -18 15 -77 17 l-78 3 0 50 0 50 90 5 c71 4 90 8 90 20 0 12 -20 16 -107
18z M7678 850 c-9 0 -18 -7 -20 -16 -2 -9 -2 -86 0 -170 2 -127 6 -154 17
-154 12 0 15 22 15 125 0 93 3 125 13 125 6 0 53 -57 102 -125 68 -95 95 -124
110 -122 19 2 20 8 17 167 -2 91 -5 167 -7 169 -2 1 -8 0 -14 -4 -7 -4 -11
-52 -11 -126 0 -89 -3 -119 -12 -119 -7 0 -53 57 -103 125 -53 73 -97 125
-107 125z"/>
  </g>
  <g transform="translate(0,259.0) scale(0.1,-0.1)" fill="#12EACB" stroke="none">
    <path d="M1075 1840 c-5 0 -74 -37 -152 -81 -79 -44 -143 -83 -143 -87 0 -4
15 -15 33 -26 17 -10 66 -36 107 -59 41 -22 118 -65 170 -95 52 -30 133 -77
179 -103 46 -27 85 -49 86 -49 1 0 72 -39 156 -86 85 -47 187 -104 227 -126
l72 -39 2 133 c0 73 2 145 3 161 2 24 -7 33 -74 73 -42 26 -132 79 -201 119
-69 40 -188 110 -265 156 -77 45 -151 88 -165 96 -14 7 -29 13 -35 13z M345
1520 c-2 0 -5 -72 -7 -161 l-3 -161 50 -30 c28 -16 138 -81 245 -145 107 -63
242 -143 300 -178 58 -34 115 -68 127 -74 19 -9 30 -8 60 9 21 11 87 48 148
83 60 34 110 66 110 70 0 5 -34 26 -75 48 -41 22 -104 57 -140 78 -36 21 -171
98 -300 171 -129 73 -297 168 -373 211 -75 44 -139 79 -142 79z M3751 693
c-277 1 -508 -1 -514 -5 -6 -4 -9 -10 -5 -13 4 -4 237 -6 519 -5 282 0 516 4
519 7 3 3 0 7 -6 10 -5 2 -236 4 -513 6z M8755 693 c-268 1 -489 -2 -492 -6
-3 -5 -3 -10 0 -13 2 -3 224 -5 492 -5 268 0 490 3 493 6 3 3 3 8 0 11 -4 3
-225 6 -493 7z"/>
  </g>
</svg>
