<svg xmlns="http://www.w3.org/2000/svg" viewBox="0 0 100 90" role="img" aria-label="Australia">
  <path fill="currentColor" d="M69.7,5.4L68.1,16.5L57.7,18.0L55.2,14.8L56.4,12.0L57.8,9.2L56.7,9.5L53.3,8.9L48.9,7.6L46.8,7.4L45.8,9.0L43.4,12.1L41.1,16.0L35.7,13.2L34.3,14.0L33.7,14.1L32.5,16.2L30.5,17.1L28.8,18.6L28.5,19.9L27.7,19.9L25.2,24.4L16.2,29.5L13.5,29.4L9.1,33.2L7.3,40.0L7.1,41.3L7.4,44.6L13.5,64.1L25.3,61.5L45.2,55.7L50.9,57.4L53.4,60.5L55.9,64.1L58.2,60.9L59.3,61.6L60.0,63.5L63.9,69.0L70.6,72.5L75.5,71.1L78.2,73.9L86.3,68.4L88.1,63.9L91.0,58.7L93.1,53.2L93.7,46.1L93.5,39.3L89.5,37.3L87.6,33.5L86.0,32.8L84.7,30.6L83.0,28.4L78.5,24.6L77.7,20.7L75.4,15.1L72.3,11.7L69.6,5.8L69.7,5.4Z M75.1,76.8L76.2,82.3L77.2,83.6L77.4,83.8L77.6,83.8L77.5,84.0L77.8,84.4L78.2,84.3L79.0,84.5L79.8,84.3L80.1,83.8L80.1,84.3L80.8,83.7L81.2,82.9L82.1,82.8L82.4,81.0L82.9,78.3L78.2,78.6L75.4,77.0L75.1,76.8Z"/>
</svg>
