<svg xmlns="http://www.w3.org/2000/svg" viewBox="0 0 560 480" fill="none" role="img" aria-label="Abstract AI platform illustration">
  <defs>
    <linearGradient id="g1" x1="0%" y1="0%" x2="100%" y2="100%">
      <stop offset="0%" stop-color="#0039e4"/>
      <stop offset="100%" stop-color="#04dbf1"/>
    </linearGradient>
    <linearGradient id="g2" x1="0%" y1="100%" x2="100%" y2="0%">
      <stop offset="0%" stop-color="#fe4c1c"/>
      <stop offset="100%" stop-color="#ff8a5c"/>
    </linearGradient>
    <filter id="shadow" x="-20%" y="-20%" width="140%" height="140%">
      <feDropShadow dx="0" dy="12" stdDeviation="16" flood-color="#0160e7" flood-opacity="0.2"/>
    </filter>
  </defs>
  <ellipse cx="420" cy="80" rx="90" ry="70" fill="url(#g1)" opacity="0.15"/>
  <ellipse cx="80" cy="400" rx="60" ry="50" fill="url(#g2)" opacity="0.12"/>
  <g filter="url(#shadow)">
    <rect x="60" y="100" width="320" height="220" rx="16" fill="#fff" stroke="#e6e6e6" stroke-width="1"/>
    <rect x="80" y="130" width="120" height="12" rx="6" fill="url(#g1)" opacity="0.8"/>
    <rect x="80" y="155" width="200" height="8" rx="4" fill="#eef3fb"/>
    <rect x="80" y="175" width="160" height="8" rx="4" fill="#eef3fb"/>
    <rect x="80" y="210" width="280" height="80" rx="8" fill="#f7f7f7"/>
    <circle cx="110" cy="250" r="20" fill="url(#g1)" opacity="0.3"/>
    <rect x="145" y="235" width="180" height="8" rx="4" fill="#a5b7d2" opacity="0.5"/>
    <rect x="145" y="255" width="140" height="8" rx="4" fill="#a5b7d2" opacity="0.35"/>
  </g>
  <g filter="url(#shadow)">
    <rect x="200" y="200" width="280" height="200" rx="16" fill="#0a0f2b"/>
    <rect x="220" y="230" width="80" height="80" rx="40" fill="url(#g1)"/>
    <text x="260" y="282" text-anchor="middle" fill="#fff" font-family="system-ui,sans-serif" font-size="28" font-weight="700">AI</text>
    <rect x="320" y="240" width="140" height="10" rx="5" fill="#fff" opacity="0.9"/>
    <rect x="320" y="265" width="100" height="8" rx="4" fill="#00c3ff" opacity="0.6"/>
    <rect x="320" y="290" width="120" height="8" rx="4" fill="#fff" opacity="0.3"/>
    <rect x="220" y="340" width="240" height="36" rx="18" fill="url(#g2)"/>
    <text x="340" y="363" text-anchor="middle" fill="#fff" font-family="system-ui,sans-serif" font-size="13" font-weight="700">Sovereign Deploy</text>
  </g>
  <circle cx="480" cy="360" r="48" fill="url(#g1)" opacity="0.9"/>
  <path d="M468 360 L476 368 L496 348" stroke="#fff" stroke-width="4" stroke-linecap="round" stroke-linejoin="round" fill="none"/>
</svg>
