<svg xmlns="http://www.w3.org/2000/svg" width="240" height="48" viewBox="0 0 240 48" role="img" aria-label="Sovereign Warden">
  <defs>
    <linearGradient id="shieldGradLight" x1="0%" y1="0%" x2="100%" y2="100%">
      <stop offset="0%" style="stop-color:#2dd4bf"/>
      <stop offset="100%" style="stop-color:#14b8a6"/>
    </linearGradient>
  </defs>
  <path d="M24 4 L40 10 V22 C40 32 32 38 24 42 C16 38 8 32 8 22 V10 Z" fill="url(#shieldGradLight)" opacity="0.9"/>
  <path d="M24 12 L32 15.5 V22.5 C32 27.5 28.5 30.5 24 32.5 C19.5 30.5 16 27.5 16 22.5 V15.5 Z" fill="#0f1620"/>
  <path d="M24 18 L28 20 V23 C28 25 26.5 26 24 27 C21.5 26 20 25 20 23 V20 Z" fill="#2dd4bf"/>
  <text x="52" y="22" font-family="Instrument Serif, Georgia, serif" font-size="20" fill="#e8edf4">Sovereign</text>
  <text x="52" y="40" font-family="DM Sans, system-ui, sans-serif" font-size="14" font-weight="600" fill="#2dd4bf" letter-spacing="0.08em">WARDEN</text>
</svg>
