<svg xmlns="http://www.w3.org/2000/svg" viewBox="0 0 24 24" role="img" aria-label="Android">
  <path fill="#3DDC84" d="M17.6 9.5c-.4 0-.8.1-1.1.3l-.9-1.5c-.1-.2-.4-.2-.5-.1-.2.1-.2.4-.1.5l.9 1.5c-.9.6-1.5 1.6-1.5 2.8v.1H9.6v-.1c0-1.2-.6-2.2-1.5-2.8l.9-1.5c.1-.2.1-.4-.1-.5-.2-.1-.4-.1-.5.1l-.9 1.5c-.3-.2-.7-.3-1.1-.3-1.5 0-2.7 1.3-2.7 2.9v5.2c0 .4.3.7.7.7h.7v2.4c0 .8.6 1.4 1.4 1.4s1.4-.6 1.4-1.4v-2.4h5.4v2.4c0 .8.6 1.4 1.4 1.4s1.4-.6 1.4-1.4v-2.4h.7c.4 0 .7-.3.7-.7v-5.2c0-1.6-1.2-2.9-2.7-2.9zM8.2 13.2c-.4 0-.8-.4-.8-.8s.4-.8.8-.8.8.4.8.8-.4.8-.8.8zm7.6 0c-.4 0-.8-.4-.8-.8s.4-.8.8-.8.8.4.8.8-.4.8-.8.8zM7.1 6.1c.1-.2.1-.4-.1-.5-.2-.1-.4-.1-.5.1l-1 1.7c-.5.2-1 .6-1.3 1l1.5-2.3zm9.9-.5c-.2-.1-.4-.1-.5.1l-1 1.7c.5.2 1 .6 1.3 1l1-1.7c.1-.2.1-.4-.1-.5-.2-.1-.4-.1-.7-.1z"/>
</svg>
