<svg xmlns="http://www.w3.org/2000/svg" viewBox="0 0 24 24" role="img" aria-label="Linux">
  <path fill="#FCC624" d="M12 2C8.5 2 6 4.2 6 7.2c0 1.2.5 2.3 1.3 3.1-.3.8-.5 1.7-.5 2.6 0 2.8 2.2 5.1 5 5.1h.4c.3 1.2 1.3 2 2.5 2h1.6c1.5 0 2.7-1.2 2.7-2.7v-.3c2.2-.6 3.8-2.6 3.8-5 0-1.5-.6-2.8-1.6-3.8C20.5 5.8 18.5 4 16 3.3 14.8 2.5 13.4 2 12 2zm-1.5 4.5c.6 0 1 .4 1 1s-.4 1-1 1-1-.4-1-1 .4-1 1-1zm3 0c.6 0 1 .4 1 1s-.4 1-1 1-1-.4-1-1 .4-1 1-1z"/>
  <path fill="#1D2B38" d="M9.5 7.5c0 .3-.2.5-.5.5s-.5-.2-.5-.5.2-.5.5-.5.5.2.5.5zm5 0c0 .3-.2.5-.5.5s-.5-.2-.5-.5.2-.5.5-.5.5.2.5.5z"/>
</svg>
