<svg xmlns="http://www.w3.org/2000/svg" viewBox="0 0 120 72" role="img" aria-label="United States">
  <path fill="currentColor" d="M9.9,5.8L66.3,7.3L84.7,15.1L103.9,16.1L112.2,13.8L112.6,17.3L110.4,17.7L108.6,19.2L106.6,21.7L108.0,24.0L105.5,24.6L100.8,25.8L98.9,31.7L98.7,32.5L97.6,34.3L96.7,32.4L96.8,30.1L96.1,33.3L94.7,32.4L95.4,34.3L94.9,35.8L97.1,38.2L96.9,39.4L95.9,40.4L96.2,42.2L90.9,46.2L88.6,48.6L86.7,52.1L89.3,62.3L87.2,65.7L85.4,62.8L84.3,59.9L81.4,54.7L77.4,53.5L75.6,53.7L71.7,54.2L72.1,54.9L72.6,56.9L70.4,56.8L67.9,55.5L61.5,55.4L58.7,57.9L57.4,60.6L57.4,64.9L52.8,60.6L48.2,55.0L43.2,53.2L37.0,50.9L19.0,45.4L15.3,43.3L11.4,37.7L10.9,34.7L10.9,33.9L8.0,30.1L6.8,22.1L7.7,15.0L7.5,12.8L6.3,7.7L10.3,8.8L10.5,10.3L10.1,6.5L9.9,5.8Z"/>
</svg>
